<svg height="387.07947" width="437.22531" xmlns="http://www.w3.org/2000/svg"><g transform="translate(-178.51837 -18.256359)"><path d="m489.33067 253.55623c7.46596.14871 14.84866 18.52685 19.19924 27.22801.53682 1.07369 1.71912 2.01571 2.09446 3.1417.34767 1.04304 2.36789 6.35906 2.09446 6.63246-3.05736 3.05736-13.26493 21.02464-13.26493 24.4354-.67188 1.34381-5.5294 7.73548-5.93431 7.33062-.66019-.66025-.24444-3.03704-1.04723-3.83985-.0956-.0956-1.71016-1.78057-1.04723-2.44354.60998-.60998 2.68167-8.85413 3.49077-10.47231 1.58463-3.16927 3.39091-9.67433 5.58523-11.86863.79207-.79205-3.75524-11.43492-5.23615-12.91585-7.18631-7.18631-5.58524-7.00898-5.58524-16.40662 0-2.15039-.34907-4.03785-.34907-6.28339 0-.81447 0-1.629 0-2.44354 0-.23269-.0235-.92966 0-.69815.70986 6.98035 1.50198 13.95331 2.09446 20.94462.0491.57975-.63584-.98488-1.04723-1.39631-1.70632-1.70628-1.74539.0684-1.74539-3.14169 0-4.64007-.34908-8.92087-.34908-13.61401 0-1.59228.85069-2.34524 1.04724-4.18892z" fill="#6a006a"/><path d="m459.58159 239.79191c1.69955 3.59109 2.71331 6.65892 3.94935 10.3671.35494 1.06476.98041 2.45443 1.48102 3.45565.75377 1.50753-.6012 4.33554.49366 5.43039.37191.3719 3.39909-1.42445 3.45569-1.481 1.04353-1.04353 4.9331.007 5.92404-.98733.50214-.50218 1.481-15.26996 1.481-17.27848 0-.85894 1.22515-3.71152.49368-4.44298-.16274-.16274-5.45486 1.49321-6.41771 1.97466-3.31354 1.65679-9.18577-.38789-10.86073 2.96199z" fill="#d35f5f"/><path d="m481.45461 246.56184c-.70855.10891-3.06295 1.06901-3.64349 1.06901-9.16835 0-19.24059 4.67868-28.27524 5.23616-.21799.3592-.38146.79534-.69816 1.74539-.36633 1.09903-.80704 10.06885 0 10.47231 1.25243.62624 2.40498 1.37704 3.83985 2.09446.43362.21685 2.15568.0614 2.44354.34908.0905.0905-1.27208 18.0514-.34908 19.89739.48483.96967.70859 2.12574 1.04723 3.1417.8311 2.49332 3.43162 4.41973 4.53801 6.63246.0424.0848-2.83447 24.25374-3.1417 25.48263-.16459.65836-1.32962 3.90652-.69815 4.538.42381.42378 5.09377.12288 5.58523 0 4.21708-1.05428 28.20428-1.67445 29.67156-3.14169 1.76765-1.76766 1.14895-5.49433.89451-8.92325-2.83661-11.12467 2.11925-28.60547 6.41429-32.90052.79474-.79477-.37547-11.72047-1.0036-12.3486-.52649-.52648-.32142-4.79401-1.46176-5.93431-1.97805-1.97808-2.97831-10.85434-3.46895-11.34501-.16956-.16958-.27764-.42252-.39272-.69815-4.33118-1.44008-8.90727-3.14749-11.10501-5.34528-.0239-.0237-.0951-.037-.19636-.0216zm-30.52243 4.55979c-.72828.91039-1.07635 1.25234-1.33085 1.63633z" fill="#800080"/><path d="m456.1259 327.17142c5.51848-3.43973 12.48142-4.81873 18.75945-6.91137 3.32618-1.10874 7.27619-.9229 10.36705-2.46833 1.59686-.79841 5.72492-2.96199 7.40505-2.96199 2.72853 0 9.23827 17.5613 6.91137 22.21506-1.71507 3.43017-6.52319 13.50628-4.93669 18.26581 2.00848 6.02542 0 16.08554 0 22.70879 0 .90802 1.30319 4.12714.49367 4.93665-1.48592 1.48595-7.36352-.53514-8.88605.9874-.29585.29581-6.60751 2.27849-6.91138 1.97466-.0237-.0237-3.94935-26.42109-3.94935-28.63284 0-.85636-.16202-12.17972-1.48101-10.86077-1.44 1.44001-1.10607 11.57309-1.48101 13.82276-.46283 2.77704-5.59946 26.82727-6.41771 27.64551-1.4625 1.46249-10.04898 1.21046-12.34173 1.97466-.90136.30048-7.54371 2.32974-8.39239 1.48106-.30405-.30405 1.267-3.52135 1.48101-3.94939 1.03804-2.0761.73841-5.6709 1.48101-7.89871 1.60535-4.816-.60598-11.0175.98734-15.79741 1.6663-4.99892.59516-12.05105 2.96202-16.78474.39493-.7899-.39494-2.17217 0-2.96206 1.2172-2.4344 2.46834-7.52876 2.46834-9.87337 0-1.34541 1.36489-3.83329 1.97468-4.44305.59332-.59329-1.01784-1.81311-.49367-2.46833.65015-.81272 2.2261-1.72325 2.96202-.98733.47976.47977.17164 2.10773-.49367 1.97466-2.66188-.53241-3.52965-2.40242-.98734.98733" fill="#630063"/><g transform="matrix(.6981542 0 0 .6981542 113.02555 -324.17967)"><g transform="matrix(1.2864286 0 0 2.0429145 -56.617087 -911.83758)"><path d="m164 933.36218c.63571.47878-3.68105-3.06035-8-4.5-4.32989-1.44329-14.36636-10.10774-13-10.5 3.21067-.92173 6.12504-.12504 8-2 1.61741-1.6174 12.03643-2.03643 13-3 .0779-.0779.87229-1.1277 1.5-.5 5.26866 5.26867 10.61427 6.5 20.5 6.5 1.19736 0 6.83003 1.66997 8 .5.91667-.91666 4.08333.41667 5-.5 1.54536-1.54536 19.0097-2.5097 20-3.5 1.00937-1.00937 4.80828-2.5 6.5-2.5 3.47374 0 20.5 5.63392 20.5 6.5 0 .28916-3.27494 2.27495-3.5 2.5-2.93462 2.93462-4.979 5.979-7 8-.19482.19482-1.69488 0-2 0-4.00629 0-7.9844 1.49805-12 2-10.62378 1.32798-20.9671 4.08493-31.5 6-1.92626.35023-18.85909 4.14091-20 3-.12507-.12507.89888-4.60112 0-5.5-.66523-.66523-4.58324-1.93329-6-2.5z" fill="#ff6d0b"/><path d="m196 931.86218c7.01737-2.27837 14.17141-3.66785 21.5-5.5 3.51831-.87957 12.94396-2.22198 15.5-3.5 2.46433-1.23216 6.68273-3 9.5-3 .72368 0 2.21063-.78937 2.5-.5.26606.26606-.22029 18.22029-1 19-.67108.67108-16.36642 3.34161-19 4-4.04125 1.01032-8.00816 2.00204-12 3-3.15886.78972-7.5272.0136-10.5 1.5-1.30425.65213-2.96197 1.5-4.5 1.5-.39367 0-2.5511 1.4489-3 1-.72122-.72121.47444-3.55112 0-4.5-.95245-1.90489-1-4.73448-1-7 0-1.01379-1.21686-2.28314-.5-3 1.17017-1.17017.59507.17488 2.5-3z" fill="#f60"/><path d="m153.5 922.86218c.13343.3192 4.36447-1.13552 5.5 0 2.70298 2.70298 20.80904 3.90452 25 6 3.14198 1.57099 8.88059.88059 11.5 3.5.34798.34798 1 17.07897 1 18 0 .2357-.33333-.33333-.5-.5-.69725-.69725-3.06974-1.03487-4-1.5-4.21631-2.10815-10.45434-1.98478-15-3.5-4.45823-1.48608-32.25507-8.75507-33.5-10-.26607-.26606.48394-7.04817 0-8.5-.30994-.92982-2.09045-6.40954-1-7.5.5688-.5688 9.75309 3.50124 11 4z" fill="#af4600"/></g><g transform="matrix(1.1144523 0 0 1.3060853 -21.712352 -261.2011)"><path d="m164 933.36218c.63571.47878-3.68105-3.06035-8-4.5-4.32989-1.44329-13.80017-9.69983-13-10.5 1.65598-1.65598 4.77909-1.65633 6.65405-3.53129 1.61741-1.6174 13.38238-.50514 14.34595-1.46871.0779-.0779.87229-1.1277 1.5-.5 5.26866 5.26867 10.61427 6.5 20.5 6.5 1.19736 0 6.83003 1.66997 8 .5.91667-.91666 4.08333.41667 5-.5 1.54536-1.54536 19.0097-2.5097 20-3.5 1.00937-1.00937 4.80828-2.5 6.5-2.5 3.47374 0 20.5 5.63392 20.5 6.5 0 .28916-3.27494 2.27495-3.5 2.5-2.93462 2.93462-4.979 5.979-7 8-.19482.19482-1.69488 0-2 0-4.00629 0-7.9844 1.49805-12 2-10.62378 1.32798-20.9671 4.08493-31.5 6-1.92626.35023-18.85909 4.14091-20 3-.12507-.12507.89888-4.60112 0-5.5-.66523-.66523-4.58324-1.93329-6-2.5z" fill="#ff6d0b"/><path d="m196 931.86218c7.01737-2.27837 14.17141-3.66785 21.5-5.5 3.51831-.87957 12.94396-2.22198 15.5-3.5 2.46433-1.23216 6.68273-3 9.5-3 .72368 0 2.21063-.78937 2.5-.5.26606.26606-.22029 18.22029-1 19-.67108.67108-16.36642 3.34161-19 4-4.04125 1.01032-8.00816 2.00204-12 3-3.15886.78972-7.5272.0136-10.5 1.5-1.30425.65213-2.96197 1.5-4.5 1.5-.39367 0-2.5511 1.4489-3 1-.72122-.72121.47444-3.55112 0-4.5-.95245-1.90489-1-4.73448-1-7 0-1.01379-1.21686-2.28314-.5-3 1.17017-1.17017.59507.17488 2.5-3z" fill="#f60"/><path d="m153.5 922.86218c.13343.3192 4.36447-1.13552 5.5 0 2.70298 2.70298 20.80904 3.90452 25 6 3.14198 1.57099 8.88059.88059 11.5 3.5.34798.34798 1 17.07897 1 18 0 .2357-.33333-.33333-.5-.5-.69725-.69725-3.06974-1.03487-4-1.5-4.21631-2.10815-10.45434-1.98478-15-3.5-4.45823-1.48608-32.25507-8.75507-33.5-10-.26607-.26606.48394-7.04817 0-8.5-.30994-.92982-2.09045-6.40954-1-7.5.5688-.5688 9.75309 3.50124 11 4z" fill="#af4600"/></g><g fill="#af4600"><path d="m213.34304 819.50598c-.14244.56975.14245 1.85165-.42729 1.70922s.42729-2.29649.42729-1.70922c0 1.28979-1.33932 2.93371-.42729 3.84572 1.25595 1.25596 5.84901-.0667 7.69143.8546 2.97913 1.48957 7.37968.97017 9.82794 3.41842.88.88.91804 3.48186 1.7092 4.27301 2.19782 2.19782 7.66444-3.44541 5.98223-5.12762-.94698-.94698-1.46417-3.17338-2.56381-4.27301-2.42673-2.42672-17.74273-7.89538-20.51049-5.12762-.64489.6449-1.13946 1.42434-1.70921 2.1365z"/><path d="m213.34304 877.50598c-.14244.56975.14245 1.85165-.42729 1.70922s.42729-2.29649.42729-1.70922c0 1.28979-1.33932 2.93371-.42729 3.84572 1.25595 1.25596 5.84901-.0667 7.69143.8546 2.97913 1.48957 7.37968.97017 9.82794 3.41842.88.88.91804 3.48186 1.7092 4.27301 2.19782 2.19782 7.66444-3.44541 5.98223-5.12762-.94698-.94698-1.46417-3.17338-2.56381-4.27301-2.42673-2.42672-17.74273-7.89538-20.51049-5.12762-.64489.6449-1.13946 1.42434-1.70921 2.1365z"/><path d="m213.34304 863.50598c-.14244.56975.14245 1.85165-.42729 1.70922s.42729-2.29649.42729-1.70922c0 1.28979-1.33932 2.93371-.42729 3.84572 1.25595 1.25596 5.84901-.0667 7.69143.8546 2.97913 1.48957 7.37968.97017 9.82794 3.41842.88.88.91804 3.48186 1.7092 4.27301 2.19782 2.19782 7.66444-3.44541 5.98223-5.12762-.94698-.94698-1.46417-3.17338-2.56381-4.27301-2.42673-2.42672-17.74273-7.89538-20.51049-5.12762-.64489.6449-1.13946 1.42434-1.70921 2.1365z"/><path d="m213.34304 891.00598c-.14244.56975.14245 1.85165-.42729 1.70922s.42729-2.29649.42729-1.70922c0 1.28979-1.33932 2.93371-.42729 3.84572 1.25595 1.25596 5.84901-.0667 7.69143.8546 2.97913 1.48957 7.37968.97017 9.82794 3.41842.88.88.91804 3.48186 1.7092 4.27301 2.19782 2.19782 7.66444-3.44541 5.98223-5.12762-.94698-.94698-1.46417-3.17338-2.56381-4.27301-2.42673-2.42672-17.74273-7.89538-20.51049-5.12762-.64489.6449-1.13946 1.42434-1.70921 2.1365z"/><path d="m154.37542 795.83392c-4.28792-5.84061 3.22892 4.62975-1.28191-2.13651-.79874-1.1981-2.15678-4.68004-.85461-5.98221 1.38942-1.38942 15.56766-4.94283 16.66476-3.84572.40057.40054 1.52937 4.88017 1.28191 5.12762-1.84138 1.84139-13.24634 1.32071-13.24634 5.12762"/><path d="m213.34304 786.00598c-.14244.56975.14245 1.85165-.42729 1.70922s.42729-2.29649.42729-1.70922c0 1.28979-1.33932 2.93371-.42729 3.84572 1.25595 1.25596 5.84901-.0667 7.69143.8546 2.97913 1.48957 7.37968.97017 9.82794 3.41842.88.88.91804 3.48186 1.7092 4.27301 2.19782 2.19782 7.66444-3.44541 5.98223-5.12762-.94698-.94698-1.46417-3.17338-2.56381-4.27301-2.42673-2.42672-17.74273-7.89538-20.51049-5.12762-.64489.6449-1.13946 1.42434-1.70921 2.1365z"/><path d="m154.37542 873.33392c-4.28792-5.84061 3.22892 4.62975-1.28191-2.13651-.79874-1.1981-2.15678-4.68004-.85461-5.98221 1.38942-1.38942 15.56766-4.94283 16.66476-3.84572.40057.40054 1.52937 4.88017 1.28191 5.12762-1.84138 1.84139-13.24634 1.32071-13.24634 5.12762"/><path d="m154.37542 900.83392c-4.28792-5.84061 3.22892 4.62975-1.28191-2.13651-.79874-1.1981-2.15678-4.68004-.85461-5.98221 1.38942-1.38942 15.56766-4.94283 16.66476-3.84572.40057.40054 1.52937 4.88017 1.28191 5.12762-1.84138 1.84139-13.24634 1.32071-13.24634 5.12762"/><path d="m154.37542 887.33392c-4.28792-5.84061 3.22892 4.62975-1.28191-2.13651-.79874-1.1981-2.15678-4.68004-.85461-5.98221 1.38942-1.38942 15.56766-4.94283 16.66476-3.84572.40057.40054 1.52937 4.88017 1.28191 5.12762-1.84138 1.84139-13.24634 1.32071-13.24634 5.12762"/><path d="m213.34304 802.50598c-.14244.56975.14245 1.85165-.42729 1.70922s.42729-2.29649.42729-1.70922c0 1.28979-1.33932 2.93371-.42729 3.84572 1.25595 1.25596 5.84901-.0667 7.69143.8546 2.97913 1.48957 7.37968.97017 9.82794 3.41842.88.88.91804 3.48186 1.7092 4.27301 2.19782 2.19782 7.66444-3.44541 5.98223-5.12762-.94698-.94698-1.46417-3.17338-2.56381-4.27301-2.42673-2.42672-17.74273-7.89538-20.51049-5.12762-.64489.6449-1.13946 1.42434-1.70921 2.1365z"/></g><path d="m165 769.36218h60v157h-60z" fill="#f00"/><path d="m196 605.36218c-77.99967-3.62874-120.27838 107.3831-55.90914 154.30524 49.38565 38.11577 138.28182 20.58596 144.72223-46.79844 5.49077-49.33183-15.60458-99.32928-65.24638-105.53332z" fill="#f60"/><path d="m285.375 688.875c-.12618.008-.28157.0231-.40625.0312-30.51648 1.983-61.00529 8.37684-91.75 6.96875-10.15398-.46508-19.92756 1.78268-30.0625-.0625-17.62923-3.20959-36.31755-3.51492-54.28125-5.40625-.14047 2.0557-.25054 4.1017-.25 6.15625 1.56561.1044 2.83455.26896 3.53125.5625 6.19661 2.6108 15.74653.83447 20.21875 2.71875 7.71946 3.25244 16.88258 1.14594 25.25 3.34375 27.63145 7.25776 90.09398-4.84515 121.8125-6.90625 1.43113-.093 3.61712-.34663 6.1875-.71875-.0354-2.24072-.10165-4.47019-.25-6.6875z" fill="#af4600"/><path d="m154.37542 812.33392c-4.28792-5.84061 3.22892 4.62975-1.28191-2.13651-.79874-1.1981-2.15678-4.68004-.85461-5.98221 1.38942-1.38942 15.56766-4.94283 16.66476-3.84572.40057.40054 1.52937 4.88017 1.28191 5.12762-1.84138 1.84139-13.24634 1.32071-13.24634 5.12762" fill="#af4600"/><path d="m150.957 797.54313c5.70451 7.81329 19.14942 11.53715 28.20191 11.53715 2.68331 0 5.45018.85459 8.11874.85459 5.1935 0 10.31769-.85459 15.38285-.85459 10.58845 0 20.69035-2.44009 29.48382-6.83684 1.71889-.85943 4.37595-1.38483 5.55492-2.56381.59366-.59364.42731-2.73724.42731-3.84571 0-2.16972-.25457-2.81837-1.28191-3.84571-.71525-.71524-3.30825 2.45364-3.41841 2.56381-1.42121 1.42121-4.15336 1.22209-5.98223 2.13651-2.82215 1.41107-6.81854.70607-9.82794 1.7092-7.23268 2.4109-15.77537 4.27302-23.92889 4.27302-4.57833 0-28.34176-3.98557-30.76572-6.40952-1.39208-1.39209-9.99627-8.37772-10.68255-7.69144-1.42093 1.42094-1.31436 2.99801-1.92729 4.83683-.24256.72767.56906 3.37328.64539 4.13651.0826.8264.85461 1.42433 1.2819 2.1365" fill="#f60"/><path d="m154.37542 829.33392c-4.28792-5.84061 3.22892 4.62975-1.28191-2.13651-.79874-1.1981-2.15678-4.68004-.85461-5.98221 1.38942-1.38942 15.56766-4.94283 16.66476-3.84572.40057.40054 1.52937 4.88017 1.28191 5.12762-1.84138 1.84139-13.24634 1.32071-13.24634 5.12762" fill="#af4600"/><path d="m150.957 814.04313c5.70451 7.81329 19.14942 11.53715 28.20191 11.53715 2.68331 0 5.45018.85459 8.11874.85459 5.1935 0 10.31769-.85459 15.38285-.85459 10.58845 0 20.69035-2.44009 29.48382-6.83684 1.71889-.85943 4.37595-1.38483 5.55492-2.56381.59366-.59364.42731-2.73724.42731-3.84571 0-2.16972-.25457-2.81837-1.28191-3.84571-.71525-.71524-3.30825 2.45364-3.41841 2.56381-1.42121 1.42121-4.15336 1.22209-5.98223 2.13651-2.82215 1.41107-6.81854.70607-9.82794 1.7092-7.23268 2.4109-15.77537 4.27302-23.92889 4.27302-4.57833 0-28.34176-3.98557-30.76572-6.40952-1.39208-1.39209-9.99627-8.37772-10.68255-7.69144-1.42093 1.42094-1.31436 2.99801-1.92729 4.83683-.24256.72767.56906 3.37328.64539 4.13651.0826.8264.85461 1.42433 1.2819 2.1365" fill="#f60"/><path d="m150.957 831.04313c5.70451 7.81329 19.14942 11.53715 28.20191 11.53715 2.68331 0 5.45018.85459 8.11874.85459 5.1935 0 10.31769-.85459 15.38285-.85459 10.58845 0 20.69035-2.44009 29.48382-6.83684 1.71889-.85943 4.37595-1.38483 5.55492-2.56381.59366-.59364.42731-2.73724.42731-3.84571 0-2.16972-.25457-2.81837-1.28191-3.84571-.71525-.71524-3.30825 2.45364-3.41841 2.56381-1.42121 1.42121-4.15336 1.22209-5.98223 2.13651-2.82215 1.41107-6.81854.70607-9.82794 1.7092-7.23268 2.4109-15.77537 4.27302-23.92889 4.27302-4.57833 0-28.34176-3.98557-30.76572-6.40952-1.39208-1.39209-9.99627-8.37772-10.68255-7.69144-1.42093 1.42094-1.31436 2.99801-1.92729 4.83683-.24256.72767.56906 3.37328.64539 4.13651.0826.8264.85461 1.42433 1.2819 2.1365" fill="#f60"/><path d="m150.957 875.04313c5.70451 7.81329 19.14942 11.53715 28.20191 11.53715 2.68331 0 5.45018.85459 8.11874.85459 5.1935 0 10.31769-.85459 15.38285-.85459 10.58845 0 20.69035-2.44009 29.48382-6.83684 1.71889-.85943 4.37595-1.38483 5.55492-2.56381.59366-.59364.42731-2.73724.42731-3.84571 0-2.16972-.25457-2.81837-1.28191-3.84571-.71525-.71524-3.30825 2.45364-3.41841 2.56381-1.42121 1.42121-4.15336 1.22209-5.98223 2.13651-2.82215 1.41107-6.81854.70607-9.82794 1.7092-7.23268 2.4109-15.77537 4.27302-23.92889 4.27302-4.57833 0-28.34176-3.98557-30.76572-6.40952-1.39208-1.39209-9.99627-8.37772-10.68255-7.69144-1.42093 1.42094-1.31436 2.99801-1.92729 4.83683-.24256.72767.56906 3.37328.64539 4.13651.0826.8264.85461 1.42433 1.2819 2.1365" fill="#f60"/><path d="m150.957 889.04313c5.70451 7.81329 19.14942 11.53715 28.20191 11.53715 2.68331 0 5.45018.85459 8.11874.85459 5.1935 0 10.31769-.85459 15.38285-.85459 10.58845 0 20.69035-2.44009 29.48382-6.83684 1.71889-.85943 4.37595-1.38483 5.55492-2.56381.59366-.59364.42731-2.73724.42731-3.84571 0-2.16972-.25457-2.81837-1.28191-3.84571-.71525-.71524-3.30825 2.45364-3.41841 2.56381-1.42121 1.42121-4.15336 1.22209-5.98223 2.13651-2.82215 1.41107-6.81854.70607-9.82794 1.7092-7.23268 2.4109-15.77537 4.27302-23.92889 4.27302-4.57833 0-28.34176-3.98557-30.76572-6.40952-1.39208-1.39209-9.99627-8.37772-10.68255-7.69144-1.42093 1.42094-1.31436 2.99801-1.92729 4.83683-.24256.72767.56906 3.37328.64539 4.13651.0826.8264.85461 1.42433 1.2819 2.1365" fill="#f60"/><path d="m150.957 902.54313c5.70451 7.81329 19.14942 11.53715 28.20191 11.53715 2.68331 0 5.45018.85459 8.11874.85459 5.1935 0 10.31769-.85459 15.38285-.85459 10.58845 0 20.69035-2.44009 29.48382-6.83684 1.71889-.85943 4.37595-1.38483 5.55492-2.56381.59366-.59364.42731-2.73724.42731-3.84571 0-2.16972-.25457-2.81837-1.28191-3.84571-.71525-.71524-3.30825 2.45364-3.41841 2.56381-1.42121 1.42121-4.15336 1.22209-5.98223 2.13651-2.82215 1.41107-6.81854.70607-9.82794 1.7092-7.23268 2.4109-15.77537 4.27302-23.92889 4.27302-4.57833 0-28.34176-3.98557-30.76572-6.40952-1.39208-1.39209-9.99627-8.37772-10.68255-7.69144-1.42093 1.42094-1.31436 2.99801-1.92729 4.83683-.24256.72767.56906 3.37328.64539 4.13651.0826.8264.85461 1.42433 1.2819 2.1365" fill="#f60"/><path d="m164 933.36218c.63571.47878-3.68105-3.06035-8-4.5-4.32989-1.44329-13.80017-9.69983-13-10.5 1.65598-1.65598 6.12504-.12504 8-2 1.61741-1.6174 12.03643-2.03643 13-3 .0779-.0779.87229-1.1277 1.5-.5 5.26866 5.26867 10.61427 6.5 20.5 6.5 1.19736 0 6.83003 1.66997 8 .5.91667-.91666 4.08333.41667 5-.5 1.54536-1.54536 19.0097-2.5097 20-3.5 1.00937-1.00937 4.80828-2.5 6.5-2.5 3.47374 0 20.5 5.63392 20.5 6.5 0 .28916-3.27494 2.27495-3.5 2.5-2.93462 2.93462-4.979 5.979-7 8-.19482.19482-1.69488 0-2 0-4.00629 0-7.9844 1.49805-12 2-10.62378 1.32798-20.9671 4.08493-31.5 6-1.92626.35023-18.85909 4.14091-20 3-.12507-.12507.89888-4.60112 0-5.5-.66523-.66523-4.58324-1.93329-6-2.5z" fill="#ff6d0b"/><path d="m196 931.86218c7.01737-2.27837 14.17141-3.66785 21.5-5.5 3.51831-.87957 12.94396-2.22198 15.5-3.5 2.46433-1.23216 6.68273-3 9.5-3 .72368 0 2.21063-.78937 2.5-.5.26606.26606-.22029 18.22029-1 19-.67108.67108-16.36642 3.34161-19 4-4.04125 1.01032-8.00816 2.00204-12 3-3.15886.78972-7.5272.0136-10.5 1.5-1.30425.65213-2.96197 1.5-4.5 1.5-.39367 0-2.5511 1.4489-3 1-.72122-.72121.47444-3.55112 0-4.5-.95245-1.90489-1-4.73448-1-7 0-1.01379-1.21686-2.28314-.5-3 1.17017-1.17017.59507.17488 2.5-3z" fill="#f60"/><path d="m153.5 922.86218c.13343.3192 4.36447-1.13552 5.5 0 2.70298 2.70298 20.80904 3.90452 25 6 3.14198 1.57099 8.88059.88059 11.5 3.5.34798.34798 1 17.07897 1 18 0 .2357-.33333-.33333-.5-.5-.69725-.69725-3.06974-1.03487-4-1.5-4.21631-2.10815-10.45434-1.98478-15-3.5-4.45823-1.48608-32.25507-8.75507-33.5-10-.26607-.26606.48394-7.04817 0-8.5-.30994-.92982-2.09045-6.40954-1-7.5.5688-.5688 9.75309 3.50124 11 4z" fill="#af4600"/></g><path d="m384.20845 216.31361c2.05486-.23109 5.54043 1.77904 6.98742 4.90321.46086.99501.32469 2.26656.78555 3.26157.14681.31703.72491.587.92843 1.09952-1.58611-1.09212-3.75331-1.50424-4.75093 1.21472-.1504.40995-.48585 1.29933-.3425 1.60882.17716.38252.32241.77963.46613 1.17765-1.83808 1.53287-4.22152 4.02116-3.46694 5.65037.77655 1.67669 3.54705 5.78931 5.37159 4.94426.0784-.0363.80274-.16183.81541-.19639.0527-.14368-2.6523-3.10511-2.751-3.98276-.0973-.86529.30177-1.60108.8968-2.14878.0446.19457.0981.38315.18098.56201.47954 1.03537 1.99297 1.9547 2.41635 2.86879.73737 1.59207 4.45983 1.80159 5.19721 3.39359.42316.91367 1.50589-.43021 1.93746-.34217.34558-.30733.61188-.41568.72713-.16686 5.31793 4.86537 9.02895 15.85271 13.3458 22.20633 3.69396 5.43681 6.64774 1.01037 7.96492 1.04975 5.33649.15967 10.55934-2.70751 16.03124-2.12155 2.02575.21698 5.81859.93057 7.35277.21998.59702-.27653 2.02358 1.23804 2.6206.9615 2.36208-1.094 1.05503-8.68085.58446-9.6968-.42371-.91486-14.10432 2.42364-17.89487 2.84993-2.16592.24359-14.38468 2.60112-15.4628.27333-1.14756-2.47768-1.96352-6.58771-3.11392-9.07153-1.3056-2.81894-3.46292-5.12851-4.62847-7.645-.55302-1.19406-2.8971-1.55856-3.45013-2.75254-1.43282-3.0936-4.35804-4.53103-5.88191-8.02752.16173-1.84348-1.99016-10.62402-5.99571-12.06466-.47371-.17035-.97384-1.348-1.49874-1.28901-2.41698.27179-1.63367-2.01501-4.01334-1.74741-1.13354-.89629-2.94315-1.83174-4.10906-.6659-.0874.0874-.82927 1.2689-.49367 1.60443.932.93204 1.78146 1.33515 3.24374 2.06912z" fill="#e84545"/><path d="m469.14965 205.69797c-.9606-.0321-1.85339.11945-2.66172.52361-.51793.25902-2.07132-.39404-2.46535 0-2.08831 2.08832-7.39509 1.4826-9.86143 3.94897-1.00877 1.00877-1.83529 2.68936-2.55263 4.36347-.16587 2.24449-.79444 7.6052.0654 8.46512.0649.0649.19355.0635.34908.0216.0376.16972.0763.32708.15272.47998.18045.36088.36389.82159.54543 1.33082-.82079 1.78476-1.20415 4.13859-2.1381 5.47618-3.27443 4.68957-1.83005 6.80736.93815 4.49437.71573.0649 1.5613.0405 2.33445-.0433-.35206 3.56875.28068 8.72399 2.269 10.71226.0915.0915.82928.16379.98178.24003 1.39273.69634 2.69984.41289 3.73076-.41456.75768-.12672 1.6761-.69516 2.46536-1.11265.42814.39327.89624.72168 1.22177 1.04723 1.59948 1.59947 15.19412-.0587 15.90482-5.9998.38666-.10765.70081-.24261.8727-.41449.42454-.42455 1.48357-20.38499 1.48357-22.71187 0-1.04513.52132-4.8329.80725-7.11244-4.5106.56236-10.12039-3.14959-14.44307-3.29438z" fill="#e84545"/><path d="m455.3854 251.8868c-1.95523-.63944-15.03352-.62876-19.74679 1.72786-1.69102.84554-4.19151.36793-5.92403 1.2342-1.40604.70304-4.39292-.0251-5.92403.74046-1.26144.63072-8.46055-.42545-9.13289.24687-.1138.1138.49367 3.90247.49367 4.68985 0 3.60904-1.23418 6.80784-1.23418 9.87337 0 .68426-.24683 1.10971-.24683 1.72786 0 .25413-.43075.30977-.24683.49366.20479.20484.91586-.66904.98733-.74046.45557-.45561 2.49224.22292 2.96202-.24687 1.30952-1.30952 4.46671.35844 6.17087-.49366 3.94446-1.97222 11.39904-.26914 15.30376-2.22153.85941-.42971 15.49288 1.20537 16.04426 1.481.30925.15464 2.69506 1.0075 2.96202.74053.17454-.17454 0-1.4537 0-1.72786 0-2.20875.95717-7.77248.49366-9.62657-.26458-1.05833-.49366-2.35243-.49366-3.45565 0-1.13911-.22959-3.19162-.98735-3.94939-.0719-.0718-1.481-1.05903-1.481-.49367 0 .69816.98734.9874 1.481 1.48107" fill="#6a006a"/><path d="m453.37572 252.85807c5.07604 3.53643 10.06573 10.02738 13.26493 15.3594 1.89474 3.15789 5.44691 5.74985 7.6797 8.72692 1.54053 2.05404 3.55423 3.71293 4.88708 5.93431 3.71003 6.18342 5.86259 13.33189 9.77416 19.19925.87768 1.3165 3.01508 3.45998 3.49077 4.88707.52183 1.56548 1.96902 8.60147 2.44354 9.07601.36437.36437 1.06288-4.56928 1.39631-5.23616.73056-1.46109.69815-8.14334.69815-10.12323 0-.14375.0924-.9548 0-1.04723-3.27023-3.27023-8.23566-8.79158-10.82139-13.96309-3.32806-6.65613-7.98489-12.12994-11.17047-18.50108-1.12465-2.24932-6.73762-6.9479-7.33061-8.72693-.49685-1.49049-5.00546-7.7389-6.28339-8.37785-.55853-.27926-.83779-1.11705-1.39631-1.39631-1.1823-.59113-7.83242 1.35267-8.37785 2.44354-.49136.98272 3.30049 2.71324 4.538 2.09446 1.08155-.54079 2.80144-4.89587 0-2.09446" fill="#874112"/><path d="m479.40379 206.28707c-1.28115.28171-2.39439.5972-3.03261.91633-2.11823 1.0591-15.85499 2.02283-16.79934 2.96715-.39716.39718-.35586 1.28028-.39271 1.98534-.14879.0133-.28815.0412-.43635.0656l.34908-2.05083c-.0996.59755-.60605 1.48567-.78542 2.1381-2.25385.51998-4.3993 2.1596-5.89068 3.05442-.44465.88931-1.80014 1.80019-2.20355 2.20359-.59819.59818.29115 2.436 0 2.72713-.34934.34935-.35988 1.3637 0 1.7236.64304.643 2.89755-1.2675 3.94894-.74179.70425.35215 1.20017.96017 1.72357 1.48358.4056.40563.38448 1.6281.74178 1.98534 1.51774 1.51779 1.60525 4.40249 2.61808 6.43615-.23798 1.64219-.60038 3.09889-1.1345 4.16707-.39494.78989.39493 2.17733 0 2.96715-.83537 1.67076-2.99422 13.27624-1.98537 15.29398 1.47957 2.95913 4.94131 11.85738 6.91609 13.83218 1.97891 1.97892-.79356 8.08609.98178 9.86143.49531.49527 2.06641-2.54638 2.46535-2.94538.41033-.4103.90485.90488.98178.98182.59139.5914 2.36538-.38001 2.48718-.50183 5.8023-5.80229-2.56309-14.71619 2.46535-19.74464.57595-.57598 1.88941-.40584 2.46536-.98182 1.06196-1.06196 2.86481 4.34839 2.96716 4.45074 1.15189 1.15188 1.31346 3.27706 2.46535 4.42895 2.02124 2.02122 4.64529 5.62705 6.91609 7.89787.42189.42189-1.42282-5.89305 2.46536-3.94897 1.7878.89391 5.93529.023 6.41429.50183.14296.14291 2.04375 1.40336 2.46536.98174.68199-.68195 1.30338-2.76511 1.98537-3.44713.47461-.47461 1.83174-.36995 2.46536-1.0036.26684-.26683-4.58844-3.58481-4.95253-3.9489-4.01152-4.01152-6.89026-9.85745-10.84321-13.8104-2.31405-2.31403-1.1948-9.9598 0-17.97747.11017-4.93755.1159-9.54914-.5018-10.16687-1.61932-1.6193-1.39999-5.82889-2.96715-7.39603l-4.36346-4.38532zm-26.98803 9.076c.16456-.32911-1.14633.15088-.98178.47999.16456.32911.65267-.31543.98178-.47999z" fill="#916f6f"/><path d="m455.87907 185.24142c-1.81421.41429-2.42783 1.1937-3.45568 2.22153-1.41335 1.41334-3.24064 2.56369-3.94936 4.68985-.28477.85433-.0183 2.41352.24683 3.20885.26725.80177.24897 1.73108.74051 2.46833 3.01726 4.52592 9.62128 4.20149 12.8354.9874.21435-.2144 1.97278-2.71715 1.72785-2.96206-.0965-.0965-2.14883.98733-2.46835.98733-.45022 0-1.39644.45143-1.97468.74053-1.27877.63937-4.61791-.33427-5.43036-.74053-.5777-.28883-1.1493-1.3961-1.48101-1.72779-.27523-.27528-.0722-1.13178-.24683-1.48107-1.35139-2.70276 2.26026-4.09209 3.94935-4.93665.68196-.34097 3.64668-.0558 3.94935.2468.45898.45897.96873 1.00597.98735.98733.30987-.30984-.20837-.70199-.24684-.74046-.18763-.18766-.11736-.97525-.24684-1.2342-1.03969-2.07938-2.49596-2.22704-4.93669-2.71519z" fill="#f60"/><path d="m468.72143 151.68729c-1.20481.0496-2.24851.24128-2.72717.71994-2.11894 2.11897-4.96265 4.51461-6.41429 7.41789-1.71053 3.42109-1.02855 11.94039-1.96356 13.81039-3.10368 6.20736-2.74163 23.96987-6.91609 28.14435-.7405.74046-.24127 2.7066-.98178 3.44713l-5.93431 5.93431c-.32364.3236-1.73805.25448-1.98538.50177-.51777.51782-1.0717.97979-1.67993 1.41816-4.43014 1.26624-8.69531 3.04465-10.64685 4.99613-.32364.32366-1.73805.23269-1.98538.47998-1.35282 1.35281-3.5588 3.26303-4.93071 3.94897-2.73883 1.36943-5.2822 4.7804-6.91609 6.41429-.19782.19779-3.55321 2.96716-3.44714 2.96716.8535 0 2.62697-1.62342 2.96716-1.96356 1.1747-1.17472 7.27097-1.35847 8.87965-2.96716 2.38833-2.38831 7.16721-3.21828 8.87965-4.93071.0509-.051.12112-.10144.17453-.15276 5.11456-1.56854 10.84164-1.49405 16.123-2.8144 3.81168-.95291 8.84786-1.69679 12.34861-3.44713 2.20619-1.10309 5.68287.10388 7.89786-1.0036 1.99396-.99696 6.63657-1.96356 8.37786-1.96356 6.77622 0 16.05499.47998 23.6936.47998 2.74939 0 16.05551-.72203 17.78112 1.0036.22823.22823 3.94893-.1714 3.94893 0 0 .0328-1.80897-1.89717-3.94893-2.96716-2.37837-1.18916-8.37346-.97741-10.36323-2.96715-1.74652-1.7465-26.38713-2.69355-26.66076-2.96716-2.16084-2.16085-4.28202-3.78022-5.93431-5.43254-1.27064-1.27065-2.94534-2.02668-2.94534-4.42889 0-.77788-.95336-2.88847-1.48358-3.94897-.20981-.41959-.65382-13.68012-.5018-13.83218 1.36434-1.36433 2.26375-4.22725 3.46896-5.43247 1.70592-1.70594 5.24244-2.77712 6.89427-4.42895.24633-.24631 2.07881 0 2.46536 0 8.19365 0 5.81614 3.83077 9.88324 7.89787.25938.25936.19458 8.18327.98178 7.3961 1.77463-1.77464 1.48358-4.76441 1.48358-8.3997 0-13.64417-7.52637-22.69001-22.21003-22.69001-1.1836 0-3.66449-.32227-5.6725-.23996z" fill="#800080"/><path d="m359.3649 142.77682c-.60078.0307-1.25602.1309-1.6363.1309-3.91693 0-5.92911 1.04207-8.02877 3.1417-.52692.52696-1.68169.63448-2.44354 1.39631-.28397.28401-1.28673 3.14169-2.44354 3.14169-.14337 0-2.51196-3.87406-3.83985-4.538-2.68026-1.34011-6.28881 3.14714-7.33062 4.18892-.78418.78424-1.89872-3.49077-2.44354-3.49077-3.63269 0-4.57448 5.27267-5.93431 6.63247-.46544.46546-1.9781-.11632-2.44354.34907-1.20952 1.20956-3.14648 2.09928-4.18893 3.1417-.22884.22885-.17419 1.22142-.34907 1.39631-1.06243 1.06245-4.80215.96233-5.93431 2.09446-.74838.74842-1.66778 2.09446-1.04724 2.09446.54267 0 1.03081-1.37983 1.39631-1.74538 1.05582-1.05582 5.8322.40018 7.33062-.34908 1.63157-.81579 2.67146-3.0205 3.49077-3.83985.62245-.6224 2.72752.55622 3.1417.34908.41055-.20526 2.19962-3.59592 2.79261-4.18893 1.28204-1.28202 5.22703 3.15084 5.93431 2.44354.61295-.61291 2.1897-4.31585 3.83985-3.49077 1.23298.61654 3.59447 1.15098 4.538 2.09446.45359.45359 3.05466 4.53801 4.18893 4.53801.29351 0 2.17298-2.71408 5.23616.34907 1.09426 1.09429.69815 4.32067.69815 5.93431 0 .81454-.81452 2.44354 0 2.44354.62252 0 .89635-2.44354 1.74539-2.44354.68743 0 .88803 1.23713 1.3963 1.74539.85094.85098 2.62527 1.22896 3.49078 2.09446 1.09102 1.09108.65435 4.14515 1.74538 5.23616.46258.4626 2.98862-5.04012 5.58523-2.44354.21081.21084 0 1.76347 0 2.09446 0 1.43604 1.09939 7.22632.69816 8.02877-.74935 1.49873-1.39631 3.83678-1.39631 5.58524 0 1.16284 1.45436 2.15255 2.09446 2.79262 1.33753 1.33752-1.87117 1.96872-1.04723 2.79261 1.12197 1.12201 4.13381.64307 5.23616 1.74539 1.09963 1.09966-1.93299 2.9541-.69816 4.18892 1.44839 1.44839-1.85553 3.0316-.69815 4.18893.59721.59727 1.64958 1.00569 2.35627 1.78902.16734.68468.28226 1.40517.65452 1.96356.44399.66604 1.4716 1.0015 1.83265 1.7236.58157 1.16312 1.43608 1.78511 2.11628 2.46532.26119.26118.2188.61152.47999.87269.5695.56956.82823.26265 1.35267-.2618.14963-.14962.74643.0168.87269-.10905.0439-.044.13789-.13189.19636-.15276-.11407-.11178-.40611-.5588-.43635-.58903-.36508-.36507-.7476-.37673-1.11268-.74179-.0899-.0899-.14008-.38008-.26181-.50184-.40646-.40646-.39051-.89231-.85088-1.35267-1.04221-1.0422-2.04491-2.56886-2.29081-4.27619.46865-1.89766 1.27147-4.46288 1.72356-5.36706 1.08016-2.1603-1.04723-3.64493-1.04723-4.53801 0-2.87849 1.00565-6.36653-.34907-9.076-1.00447-2.00887.74683-4.63533 1.3963-5.93431.97789-1.95574.69816-14.72177.69816-17.45386 0-.49995.31822-2.82347 0-3.14169-.75457-.75457-.39797-3.19057-1.39631-4.18893-.88527-.88526-7.50638-4.71128-9.42508-2.79261-.0327.0328-2.76762 2.09446-3.1417 2.09446-.23271 0 0-.46539 0-.69815v-3.49078c0-2.99584-2.37731-4.67937-4.88707-5.93431-.1479-.0739-.35235-.11701-.58907-.1309-.17754-.0105-.36699-.0105-.56725 0zm-5.0398 4.10166c.21945-.0412.42454.0321.61088.21817.78405.7841 3.47835-.0126 4.18893.69815 1.60764 1.60764 1.99056 4.7832 3.83985 6.63247.74526.74528-.69816 2.37533-.69816 2.44354 0 .0815.54689-.34908.69816-.34908 1.42289 0 1.70641-.15506 2.79261-.69815 2.54438-1.27218 5.46987-4.30426 8.72693-1.04723 1.8963 1.89632 1.4005 4.89545 2.79262 7.67969.21588.43181-3.11471 18.82322-3.49077 19.19924-1.13379 1.1338 2.44353 11.00941 2.44353 13.26493 0 2.70814-.51495 4.58764-.69815 5.6725.001.31522 0 .6222 0 .95997-.10539-.15471-.0761-.5091 0-.95997-.02-4.32681-.25522-6.62583-2.79262-9.16327-.69583-.69578-1.47686-.85922-2.09446-2.09446-.71929-1.43855.69816-3.22038.69816-4.18893 0-1.14253-1.86967-3.71557-1.04724-4.538.27095-.27095 2.98958-3.29375 2.09447-4.18892-.2544-.25434-1.05201-.35383-1.39631-.69816-.60411-.60411.95319-1.83943.34908-2.44354-1.81435-1.81429-.68902-5.92516-2.44354-7.67969-2.17031-2.17029-4.52221 4.20477-5.23616 3.49077-.66166-.66164-1.59223-1.94129-2.44354-2.79262-.8124-.81237-.28661-3.42829-1.04723-4.18893-.9698-.9698-3.27698-.13523-4.18893-1.04723-.47406-.47404-.3493-4.18913-1.39631-5.23615-1.196-1.19601-4.16139.40416-4.538-.34908-.81173-1.62342-3.00783-2.77132-3.83985-3.07621-.18466.0447-.34907.0744-.34907-.0656 0-.0286.14913-.008.34907.0656.12262-.03.25622-.0656.34908-.0656h2.79262c1.21192 0 3.43816-5.16544 4.97435-5.45433z" fill="#0ff"/><path d="m494.56682 297.35256c-.50973.0133-.89522.0769-1.04723.19632-.52684.41394-.68948 1.16759-1.39631 1.35267-1.14274 1.49636-1.74397 3.01603-2.79261 3.83985-.72392.56879-.14947 2.71589-.69816 3.57804-2.70853 4.25595-5.7392 16.50904-4.18892 21.38097.2691.84568-.3497 1.92475 0 2.74899.14393.33923.30727.68949.47998 1.04723.007.007.0144.0154.0218.0216 1.17198 1.03425 2.67236 2.01788 3.68713 3.03264.40488.40486 1.77982 0 2.09446 0 1.77524 0 7.84463.79024 9.42508 0 .65687-.32841 1.45003-.51593 2.31264-.61088 7.24298-5.96035 10.25414-17.3934 10.25414-26.52986 0-4.01104-5.18825-7.85319-9.77416-9.05415-1.1094-.29058-2.80128-.13747-3.83985-.54547-.40688-.15981-3.0088-.49814-4.538-.45813zm-2.44354 1.54899c.0234-.0734.0399-.16253.0436-.2618-.12231.17391-.20783.30481-.0436.2618zm.0436-.2618c.21672-.3081.60297-.77063.30544-.82906-.37194-.073-.29076.43432-.30544.82906z" fill="#874112"/><path d="m496.11314 298.53858c1.75185 1.89807 4.84241 10.46135 2.71518 12.58863-.2057.20568.2057 1.02845 0 1.23413-.011.0112-.65763 1.0702-.49367 1.23419 1.26464 1.26464 4.12191.66618 5.6772 2.22153 1.94953 1.94953 4.72423 3.03069 5.92403 5.43031.55231 1.10462.99048.98419 1.48101.49367.31031-.31033.94458-.69774 1.23418-.98733.37043-.37044 1.05399-6.97798 1.23417-7.15818.465-.46504.24684-2.07854.24684-2.96205 0-4.53982-3.22531-7.17466-5.92404-9.87337-1.05937-1.05938-2.83379-1.0466-4.19619-1.72786-2.53043-1.2652-5.05379-2.62737-7.89871-.49367z" fill="#64300d"/><g fill="#0ff"><g transform="matrix(.6981542 0 0 .6981542 99.062467 -320.92847)"><path d="m421.25 520.75c-.3208-.006-.64768.01-1 .0312-3.78781 4.00434 3.50884 12.43757 1.125 18.375 1.38085 4.32853.34869 7.51082-.21875 11.5625-1.39958 2.11619-4.22521-.73244-4.34375-1.28125-5.00561 1.29611-13.40413-.24693-12.21875 6.6875-3.05749 4.24085-12.25594.14841-9.71875 8.125-4.26621 4.25561 6.36539 6.98006 1.03125 11.875-4.89425 4.16853-2.8331 12.16219 0 16.15625 5.58266.4641 10.17282 8.37935 15.34375 3.59375 6.04192-1.06429 12.7928-2.76654 13.65625-9.96875-1.25953-6.71128 4.12232-11.02124 8.125-14.40625-1.50992-8.10922-6.93283-16.1747-4.1875-24.65625-2.48219-5.63603-.93297-12.18984-2.03125-18.28125.56459-4.63719-.75052-7.7281-5.5625-7.8125zm-7.40625 34.09375c6.92117-.23379 8.9979 6.81577 12.3125 11.34375-.73002 6.74914-7.26423 11.41928-7.375 18.21875-2.21583 6.33038-10.87376 8.68841-16.78125 6.375-6.44471-2.74159-4.39687-10.21802-1.0625-14.25-.0205-4.4121-4.94725-12.95958 2.375-13.21875 1.87174-3.60576 6.32159-7.70092 10.53125-8.46875z"/><path d="m372.46875 551.03125c-.21464.0156-.42821.0558-.65625.0937h-1.03125c-7.2684.16298-14.34776 2.09814-21.625 2.40625-4.93199-1.2894-15.57738 6.26493-6 7.09375 3.56641-6.55336 11.70817-6.70235 18.21875-6.15625 6.10969-.34094 13.28103 7.54471 7.71875 12.84375-4.95331 3.09322-9.82997 4.04962-15.34375 7.53125-6.43892-.45924-11.55131 3.45669-10.09375 10.375-1.45001 7.22519.76449 15.52743 7.625 19.09375 8.41588.97907 16.82482-1.89502 24.78125-4.34375 8.71207-1.99857 2.6989-10.33463 6.78125-15.59375-1.38445-6.34781-6.59214-11.71828-4.96875-18.625-.33533-4.73542 1.05822-14.5173-4.78125-14.71875-.19465-.007-.41036-.0156-.625 0zm-4.96875 21.15625c6.40908-.15141 9.24318 5.747 9.875 11.46875 1.72481 6.1299-.65127 12.98607-6.53125 15.71875-6.13124-.73167-14.98406 8.0212-18.8125.21875-6.3647-1.53794-7.54147-10.80695-5.875-16.15625 4.55342-4.37601 10.13171-8.01734 16.03125-10.34375 1.2873-.4214 2.61461-.70258 3.96875-.78125.45922-.0655.91648-.11491 1.34375-.125z"/><path d="m280.1875 557.53125c-2.82854 1.20642-12.75349 1.84148-10.78965 9.30617-.69648 5.79697 5.18799 10.40092 2.76615 15.63846 2.49879 5.94913 2.46795 10.90662 4.43538 16.05126 1.22112 3.68927 1.4908 16.20341 6.75619 11.15721-.33248-6.1026-.36927-11.74721-3.94243-17.0702-2.40521-6.37513-5.8453-13.64331-3.25679-20.45785-.3493-7.07209 10.05232-8.80208 15.49789-7.60008 7.79356 2.07035 7.87997 10.17389 6.97528 16.31493 1.38709 7.069 1.05913 14.29371 2.88877 21.28544-1.16452 4.90241 1.75333 8.78412 5.72856 4.45635-3.98009-5.74139-2.49651-11.81521-4.07101-18.24197 1.65422-5.16146 3.73126-11.31904-.36056-15.89105-3.677-6.28117 5.12701-8.42686 8.65511-8.19368 5.90638 2.22229 10.78077 7.85611 13.88526 13.39516 2.78381 5.61164 2.03772 11.69507 1.332 17.69365-.33939 3.46637-1.81332 14.58452 3.49198 7.05605 3.34956-5.90835-.83253-13.71595.58944-20.61337.003-5.45037-4.6119-9.44901-6.5764-14.29143-.93703-6.18261-6.13862-11.83743-12.79329-8.98717-5.62713-.67292-7.58147 5.67402-11.74298 6.24212-4.55314-4.94723-9.59652-9.0925-16.71405-6.53062l-1.37548-.21108-1.37922-.5083z"/><path d="m468.4375 544.6875c-7.82868.84468-12.12334 7.05177-7.5625 14.09375-3.49434 7.18135 15.2023 9.98051 15.61435 6.7214-6.47974.15385-18.65428-10.2038-8.20815-14.40885 7.36586-2.71338 12.91393 6.16662 20.03125-.375 1.74619 1.06398 7.67051 7.43321 4.65635.6875-2.01049-7.88141-11.96644-7.25928-17.9063-4.7188-2.67877 1.47068-3.84066-2.71908-6.625-2z"/><path d="m542.90625 547.28125c-9.61704 4.20537 1.88646 14.62046-3.82927 21.73028-.30464 8.33882-3.24505 17.64404-2.26448 25.45717 12.48938-.48333 2.33769-12.15118 1.63327-18.1087 3.45387-7.60564 7.18563-15.05726 3.61681-22.70806.47853-2.17444 3.35822-4.36992.84367-6.37069z"/><path d="m521.125 547.78125c-11.64693.74697-22.93503 12.01124-20.87819 24.1847-1.95685 7.59997 1.33386 15.32792 8.51389 18.77783 3.0211 5.14696 19.72396.88273 12.95805-3.83738-4.9652 4.8684-11.72875 1.06339-16.58104-2.0582-3.8262-1.89227-6.05604-8.42563-2.24293-11.42489 7.72845-5.20929-3.74407-15.93227 6.74526-17.55079 5.82247-.77973 10.58748-4.83552 16.31488-2.76179 1.15083-3.26513-2.95494-3.87233-4.82992-5.32948z"/><path d="m575.1875 549.375c-8.61539.14353-15.50083 7.32929-16.9375 15.71875-3.65578 7.11945-2.98178 17.48559 2.96875 23-3.79183-5.35328-5.50861-16.70662 2.59375-18.5625 2.1686-5.10285 7.67314-4.80201 10.40625-.875 5.78647 7.40551 20.19836-2.32437 10-8.34375 5.52588-6.31231-.67323-10.33149-7.28125-10.875-.5886-.0549-1.17564-.0721-1.75-.0625zm-.125 2.15625c8.43701-.13088-2.6948 10.78382 6.84375 9.96875 7.79928 3.72559-4.2746 10.60001-7.6875 4.03125-3.25634-7.57037-11.13916 4.75916-12.21875-.96875.55322-6.02301 5.87407-12.76836 12.1875-12.96875.31425-.0279.60284-.0583.875-.0625zm9.875 32.71875c-3.58684 9.35461-18.81066.57704-20.65625 5.65625 5.87797 4.70617 12.72105-1.19068 19.09375 1.6875 3.65431-2.42227 1.97678-4.2278 1.5625-7.34375z"/><path d="m691 557.6875c-.47396.008-.97024.0593-1.46875.125-7.2858-.75914-12.67645 2.82653-13.375 9.34375-7.00353 1.42131-10.77658 9.36558-2.71875 12.6875 5.41952 6.35127-6.17107 12.73622 2.40625 18.375 4.2214 5.1161 4.48122 3.70933.6875-.8125-2.25891-4.80575 5.92824-13.32389-.65625-16.8125-5.3639-4.70871 7.09996-8.69464 10.78125-7.0625 5.00982 6.25611 18.46224 7.13653 17.15625-3.3125-1.36664-6.51805-5.70309-12.657-12.8125-12.53125zm2.15625 1.84375c10.0109-.38978 8.61493 21.15188-1.34375 12.09375-3.19961-1.19503-7.87746-3.07679-11.4375-.1875-2.31809-.74416-.003-4.13541.75-4.5-.84046-5.74574 5.63633-6.81712 9.875-7.03125.76962-.2366 1.48886-.34901 2.15625-.375zm5.9375 33.5c-.94595.10293.34122.0554 0 0zm-1 .15625c-7.50082-.14178-3.58396 11.39827-12.75 10-4.5493-.028-6.15692-.68669-1.0625 1.46875 7.7138.69487 12.67289-3.90549 13.03125-11.0625z"/><path d="m606.0625 550.8125c-9.67412 2.37338-8.01926 13.44364-4.08593 20.02662 3.78829 7.67019-9.04859 14.03573-3.66407 22.22333 4.91863 5.13103 1.41512-3.51388 3.35224-6.89463.795-5.25101 8.7311-6.44883 6.05401-12.60532-8.72903-7.15031-1.15902-20.44616 9.12505-15.0625 11.74009 2.98472 2.75392 13.6102 3.05384 20.2188 3.22568 6.70044 3.91621 13.96633 2.25861 20.9687 10.37561-5.9432-.72759-16.48891 2.78445-24.66558 5.29597-4.99902 4.54881-11.02468.8718-17.11567-3.03487-9.8274-14.12187-1.52769-18.8125-4.0625l-.46875-1.71875z"/><path d="m647.15625 554.15625c-13.54577-.0301.29556 13.69653-9.4862 19.03781-1.13666 7.32041-2.87511 18.22156 3.83218 23.39978 7.27254 2.51277 18.39136 6.11637 23.19531-2.71436.64392-8.43791-4.27442-.43327-5.89066 2.01698-7.79906-1.22535-22.75545 2.05789-19.60088-11.00487-1.49576-6.68946 5.5057-10.36513 7.67986-13.6164-9.07519-9.81033 5.40103-17.19478 13.30174-11.05639 4.00275-7.29891-9.3166-4.40225-13.03135-6.06255z"/><path d="m482.25 570.03125c6.75986 8.22876-.87491 19.78605-10.21875 21.40625-6.65311 1.95876-10.78941-2.94636-15.47445-5.5026-10.82693 1.18588-2.03091 11.78848 5.20441 9.01103 8.66402-1.26132 18.78604.30894 23.94093-8.67866 5.17729-4.83196.90096-12.73318-3.45214-16.23602z"/></g><path d="m394.35988 28.257746c-1.19864-.02234-2.63458.223689-4.51619.850841-2.59113.863756-12.0606 5.113979-12.91585 7.679696-.56807 1.704264.32318 3.891651-.34908 5.236157-.70772 1.415437-3.18455 1.831118-3.83985 3.141694-.60402 1.208086 2.03308 4.599439.34908 6.283387-.34583.345587-2.33599.120781-2.79262.349077-6.09317 3.046603-6.15709-7.107838-8.37785-4.887079-.44025.440256-1.27672.425595-2.09446.698154-.76248.254198-1.36551 1.380949-2.09446 1.745386-1.67508.837575-9.01566 2.648308-10.82139 1.745385-1.36921-.68461 1.12884-2.012848.34908-2.792617-.92447-.924426-7.99837-2.124832-9.07601-1.047231-.12098.12099-.57784 1.336128-.69815 1.396309-1.12093.560478-2.69944 1.239153-3.83985 2.094462-4.90704 3.680317-5.44458 3.282369-8.72693 0-.54197-.541907-2.64455 1.19531-3.49077.349077-.68794-.687891 1.15656-2.334208.34908-3.141694-.34537-.345307-1.06988.349077-1.39631.349077-9.85657 0-3.39337 6.957244-10.47231 8.726925-5.99868 1.499705-3.33836-1.941986-5.93431-4.537999-1.22216-1.222119-11.15335-.09153-12.91586.349074-2.26916.56732-6.04455 1.506547-7.67969 3.141694-2.00757 2.007612-11.05125 11.408961-9.07601 15.359391 1.08242 2.16484 2.66562 3.0147 4.18893 4.538.30718.30719.79766 4.08944.34907 4.53801-.8467.84672-1.96052 2.30963-2.79261 3.14169-1.26579 1.26582-.42922 4.26907-1.74539 5.58523-1.0787 1.07872-6.9022 1.88027-8.72693 2.79262-.90843.45422-1.38251 1.89556-1.83265 3.25082-.0664.0621-.13104.13097-.19636.19632-.26301.12895-.50886.28303-.56725.5891-1.18848 1.43345-1.96619 3.26995-1.24358 3.99254 1.36349 1.363498 2.58883-1.11321 3.35986-3.2726.75164-.22949 1.4572-.49723 1.52722-.56725 3.20835-3.2083 11.75522-1.63194 15.35939-5.23616 1.29784-1.2978-.0676-4.25651-.69816-4.88708-.0811-.0811 1.74539-5.90345 1.74539-7.33062 0-1.5062-.12924-4.0983-.69816-5.23616-.61034-1.22065-2.79261-3.10224-2.79261-4.538 0-1.47687 1.27204-3.3665 2.09446-4.18892.65907-.65906 1.9796-.98978 2.79262-1.39631 1.05348-.52669 1.22074-1.65756 2.09446-2.094465 2.69734-1.348624 5.32396-3.185538 8.02877-4.538002 1.01013-.505045 3.75741.431529 4.53801-.349077.058-.05795 1.71882-1.073761 2.09446-.698154.79606.796105.94932 3.043812 1.74538 3.839848.76018.76022 2.04855-.721054 2.79262-.349077 1.12539.562712 3.17717 2.315358 4.88708 1.745385 5.29199-1.763956 5.78596-1.946105 9.77416-5.93431 1.69714-1.697143 1.64114 2.339305 1.74538 2.443539.25391.253919 2.18059 1.659303 2.79262 1.047232 1.62673-1.6267 4.11364-.834993 6.63247-2.094463 3.17744-1.58872 4.78943-3.4419 7.67969-4.887077.75945-.379726 2.85402.06144 3.1417.349077.63088.630922-2.24231 2.295738-1.39631 3.141692 1.03389 1.033896 3.88405.742347 5.23615 2.094462.16137.161413.83647-.105351 1.04724 0 .46862.234371 3.08982 1.073203 3.14169 1.047231 4.44981-2.224877 7.90711-3.778969 12.2177-5.934307 1.47086-.735436-.63781 2.853004 0 3.490768.58436.584355 2.60471.349077 3.49077.349077.94808 0 9.10635-2.155132 9.42508-2.792617.57957-1.159073 1.16078-6.047828 1.74539-6.632462 1.55682-1.556814 2.90046-4.645797 4.88708-6.632465.62362-.623591.25627-2.920728 1.3963-3.490771 2.1341-1.066989 4.77816.698154 6.98155.698154 4.91957 0 13.26493-3.068248 13.26493 3.839848 0 5.545369 3.16689 2.817821 4.538 4.188926 1.32699 1.327051 4.4816 2.736275 5.58523 3.839848.2257.225713 5.92688-1.032361 6.28339-1.745386.22575-.451496.43971-2.53416.69815-2.792617.72288-.722869 4.15182-.854121 5.23616-1.396308.42844-.214194 7.3131 1.029708 7.33062 1.047231 1.70825 1.708244 4.42339 3.685347 6.98154 4.538003 1.0531.351031 2.57021.475792 3.1417 1.047231.52361.523616 2.61807-.523616 3.14169 0 .69839.698433 2.80748.34412 3.83985 0 1.43849-.479492 7.54981-.219151 8.37785-1.047231.83627-.83625 2.61797-.785354 3.83985-1.396309 1.3776-.688799 2.69616-1.6489 3.83984-2.792617.78021-.780187 3.50491-.530667 4.53801-1.047231.92881-.464412 1.28215-.990122 2.09446-1.396308.77253-.386219 3.30017-.158481 3.83985-.698155.51264-.512584.89826-1.447413 1.39631-2.443539 1.42502-2.850005 11.51954-1.045067 11.51954-4.88708 0-.596782-.69783-1.221281-1.04723-1.745385-3.12998-4.694948-13.302-2.198418-17.80293-.698154-1.8427.614236-10.37283 3.989951-11.17047 5.585233-.23272.46546.23271 1.279996 0 1.745386-1.32221 2.644468-1.16019 3.924604-3.83985 5.93431-.69547.521661-.55135.83604-1.39631 1.047232-5.69628 1.424095-12.78001-1.11984-17.80293-4.88708-.6674-.500506-2.93987-2.544423-3.83985-2.094462-4.48086 2.240446-6.6054.223758-10.12323 1.396308-3.25208 1.084024-9.30627 8.845754-13.26493 4.88708-.38377-.383776.69853-1.744618.34907-2.44354l-2.44354-4.88708c-.37877-.757497.59005-3.249768 0-3.839848-.80504-.805041-2.47696-1.291096-3.83984-1.745385-4.44683-1.482251-5.85101-3.924953-9.4469-3.992535zm-129.83487 66.084626c-.00034.0133-.003.0293 0 .0433.0145.0579.0311.0839.0654.10912-.002.009-.0199.0126-.0218.0216-.16021.1043-.29854.24079-.45817.37085l.0654-.15268c.0649-.12986.20714-.26607.34908-.39271z"/><path d="m246.02393 96.820602c-1.91159-3.80968 1.53666 3.07335-1.04723-2.09446-2.43676-4.87346-3.50317-8.49004 3.49077-10.82139 1.95799-.65263 5.66585.18787 6.63246-1.74538 1.12549-2.25099-3.17646-3.21124-3.83985-4.53801-.48718-.97434 1.74539-1.9933 1.74539-3.14169 0-1.28216-1.71232-2.25246-2.79262-2.79262-5.71729-2.85866-12.2432-.79177-17.45385-2.09446-1.52389-.38098-3.93912-1.59591-5.58524-1.04723-1.21985.4066-3.33671.89315-4.18892 1.74538-1.15977 1.15978-5.13569 2.39593-5.93432 0-.22525-.67574-1.69654-7.728494-1.39631-8.02877 1.41501-1.415019 5.93432-3.804312 5.93432-4.538002 0-.808812-2.66847-1.621184-3.49078-2.44354-1.64704-1.647015-5.61378-7.971661-4.88708-9.425079.40615-.812302.9319-1.165638 1.39631-2.094462.69725-1.394493-.83008-4.056974.34908-5.236157 1.04214-1.042135 6.20391-4.379032 4.538-1.047231-.61745 1.234895-1.49351 2.288899-2.09446 3.490771-.4035.806996.0278 2.84826.34907 3.490771.40736.814746.0265 2.47007.69816 3.141694 1.00716 1.007157 1.37569 2.422944 2.44355 3.490771 1.9387 1.938701 3.83984 3.108948 3.83984 6.981539 0 1.249487-5.23616 3.129895-5.23616 6.632465 0 1.0073.44223 4.538 1.39632 4.538 3.08786 0 8.31746-6.768952 12.91585-5.23615 2.15451.71819 13.7972 4.3548 15.35939 2.79261.88497-.88498-1.17023-3.36775-.69815-3.839845 1.73943-1.739452 2.08655-6.624576 3.14169-7.679697 2.45404-2.454012 10.92218-3.242434 12.2177-4.537999.64121-.641185-.78709-3.319514-1.04723-3.839848-.67395-1.347857-.44242-3.235037-1.74539-4.538003-.18321-.183195-2.71811-2.243448-2.44354-2.792616.59213-1.184279 2.97203-1.486022 4.18893-2.094463.2899-.144937 1.06537 0 1.39631 0 2.51779 0-2.71921 3.21514-.69816 5.236156 1.11797 1.117955 6.04128 8.270894 4.18893 10.123234-1.95183 1.951829-4.9007 2.450381-7.6797 3.839848-.85541.427689-1.48763 1.836704-2.09446 2.443539-1.07641 1.076415-2.96887 1.223516-3.83985 2.094463-1.17911 1.179113-.92855 3.602471-1.74539 5.236161-1.68972 3.37948 4.49112 4.84023 5.93431 6.28338 1.52214 1.52212-3.74592 3.2356-2.44353 4.53801.4664.46643 4.06164 3.04716 3.14169 4.88708-2.45694 4.91388-10.03139 3.39896-13.61401 6.98154-.24437.24435.13033 3.62111.69816 4.18892.55924.55929-.70548 1.70873-.69816 1.74539.42164 2.10821.94802 1.49733 1.74539 3.49078.33751.84378-1.33896 1.2816-1.74539 2.094458"/><path d="m424.7514 96.873172c-1.05839.037-2.64077.40759-5.14889 1.24363-5.149 1.71635-10.29859 2.292458-12.8504 7.396038-2.06424 4.12853 10.1731 14.65817 2.96716 18.26113-5.17701 2.58848-12.76477-2.96716-18.2611-2.96716-3.45 0-8.31968.15709-11.36682 1.98535-.59311.35591-3.27613 3.44713-3.94893 3.44713-.34595 0 1.1849-.5868 0-.98174-3.26078-1.08696-23.53105 2.20379-26.79167 5.47611-.68999-.92938-1.53201-2.11869-3.31623-3.01079-3.40749-1.70371-7.59314-3.05477-11.34501-4.93071-4.70317-2.3516-10.63445 3.12815-16.79934-.98175-.66429-.44291-6.18974-2.20994-6.41429-1.98541-2.82606 2.82606-5.51287 4.02933-7.89787 6.41429-.27781.27787 3.05364-.0321 3.94894-.47998 2.6036-1.30178 10.03125-1.81555 11.8468 0 .49367.49367.50993 1.4699 1.0036 1.96356.89251.89252 8.34875-.97811 9.35963-1.48358 1.50121-.75058 5.08136.80623 6.43611 1.48358 1.1848.59245 3.2441-.59238 4.42891 0 3.6405 1.8203 5.37913 3.89556 7.89787 6.41429.43982.43984.94135-.0209 1.48358-.61088 2.08321 3.57762 6.75318 9.97557 8.42149 11.93411.0113-.0175.0322-.0258.0436-.0433.17503.20679.32544.38908.41453.56725 0 5.49887 2.45984-1.69903 1.98538-1.4618-1.02042.51022-1.51388.74061-1.76721.82906-.0405.0663-.0793.12895-.10908.19639-.0112-.0447-.0296-.0833-.0436-.1309-.10812.023-.10523-.0517-.0436-.15276-.0419-.1249-.0975-.24386-.15272-.37086.19872-.3756.40797-.81265.6327-1.37452.002-.007.27055-.21545.5018-.39271-.0166-.35906-.15169-.74075-.5018-1.09087-.35978-.35976-1.97845.007-2.46536-.47998-.30495-.30495-3.75371-7.11126-2.96715-7.89787.90961-.90963 3.80344-1.33808 4.93071-2.46532 1.48101-1.481 6.91866.97923 8.39967-.50184.57595-.5759.90763-1.38758 1.48357-1.96355.70386-.70381 3.81579 3.07851 4.93072 1.96355 1.06357-1.06356 5.16644-2.58317 7.89787-3.9489 1.3799-.68998 1.28803 3.16271 2.46536 1.98535l1.98537-1.98535c1.39847-1.39847 3.78742.57165 4.93072 0 .63853-.31926 3.57359-1.8589 4.45073-.98181 6.40236 6.40235 5.7155 4.03652 12.82858.47998.84165-.42078 3.26273 1.18805 4.45073 0 .86402-.86396.48165-2.44682.98178-3.44713 2.01116-4.02228-1.11095-6.54346-3.94893-9.38145-1.06823-1.06818 1.1897-3.15322 1.48358-3.44714 1.41331-1.41327-1.48358-3.17325-1.48358-3.9489 0-.0551 8.27758-2.16435 8.87965-2.46539 1.17005-.58498 3.20791-1.24432 3.94893-1.98534.1218-.12183 1.1026-1.864558 1.48358-1.48358.82867.82864 1.06257 3.00751 1.98538 3.46892.72479.36241 2.94131.476 3.44713.98181.78455.78452.4973 2.46086 1.48358 3.44714.96264.96262-1.96356 3.17095-1.96356 3.9489 0 1.16389 1.40017 2.34217 1.96356 3.46899.54303 1.08605-1.04484-.10431-.5018.98174.72423 1.44853 3.88229.41338 4.95253 1.48358 1.06962 1.06964-.58964 4.84289.47998 5.91253 1.30316 1.30317 2.98815 3.51095 3.94894 5.43248 1.2274 2.45485-1.02027 6.51315-1.96356 8.3997-.58922 1.17841 2.01831 2.52013 2.46536 2.96715.41138.41136-.4114 2.05397 0 2.46533 1.72882 1.72884 6.76978 1.48357 9.38144 1.48357 1.8144 0 3.46834-.75233 4.93072-1.48357.78987-.39495 2.17728.39494 2.96715 0 4.13123-2.06556 8.28339-1.8691 10.86503-4.45074 2.00568-2.00565.73448-4.45792 1.96356-6.91605.76284-1.52568 2.24775-2.22593 3.46895-3.44714 1.1842-1.18421.55457-6.00887 1.96356-7.41789.72405-.72405.45244.95424.5018 1.0036.19235.19234 1.6623 0 1.96356 0 .68078 0 3.09012-1.18211 4.45073-.50183 1.41797.70897 1.62994 1.62998 2.46536 2.46539 1.86614 1.8661 8.48284-.9402 10.36322 0 3.26986 1.63494-5.6679 2.22997-2.46535 5.43248.63095.63099 2.73818 1.38004 3.94893 1.98541.86188.4309 1.12078-.8646 1.48358-.50184 1.71332 1.71334 4.94526 3.9635 6.41429 5.43255.66391.66388 3.71264-.23632 4.45073.50177 2.45829 2.45834 3.17691 4.63867 5.43252 6.89427 1.01708 1.01714-1.01709 2.9319 0 3.94897.80739.80741 2.47818 1.01644 3.44713 1.98534 1.19947 1.1995.38566 8.58834-.5018 10.36326-1.46186 2.92373 2.6811 4.235.5018 6.41429-.24529.24526-3.68051 2.73376-2.46535 3.9489.32911.32911.17268 1.15447.50179 1.48358 1.27925 1.2793 5.08755 2.30384 6.4143 2.96715 1.33364.66688 4.34467-.58603 5.43251.50184.57963.57961-2.11344 3.31909-.5018 4.93071.72815.72818 2.84202.37666 3.44714.98175 1.18623 1.18623.98309 3.44846 1.98537 4.45073 1.94292 1.94296 5.36655 2.94537 8.87965 2.94537 1.17268 0 6.11346 1.30443 7.41789 0 1.64005-1.64003 4.99016-3.02664 6.89427-4.93071 1.56898-1.56896 3.39268-3.87266 4.95253-5.43255.30066-.30062 6.45159-11.80949 4.93072-13.33035-.60816-.60816-3.97781-7.84013-2.96716-9.86142.98059-1.96119 2.34472-2.34475 3.46896-3.46899.82278-.82278.15899-3.12613.98177-3.9489 1.10023-1.10022 3.34471-1.35938 4.93072-2.94538.83905-.83904 1.62631-2.62987 2.46536-3.46891.53539-.53542 14.51302-5.73346 15.31575-4.93072.16456.16456.31543 1.31902.47998 1.48358.5836.58359 2.20441.21901 2.96715.98174.57597.57598-.0741 2.39125.50183 2.96716 1.77003 1.7701 4.17419 1.22896 5.91246 2.96715 1.20054 1.20055 2.54065 4.85546 5.43254 1.96356.42762-.42762-2.7311-.76748-4.42895-2.46532-1.89674-1.89674 1.55968-6.33819 0-7.89787-1.90917-1.90917-6.02807-.69306-8.39963-1.48358-.65305-.21768-3.38641-1.56617-3.46897-1.48357-.89878.8988-3.42491 1.08186-4.93072 1.98534-6.02466 3.61483-12.6027 6.3014-18.76289 9.38144-1.32154.66081-2.30661 3.65331-2.94534 4.93072-1.12672 2.25343-1.43338 4.88052-2.96715 6.41429-1.27229 1.27232 5.60693 8.64015 4.93071 11.34501-.97704 3.90819-3.75812 5.66992-5.91249 8.90146-4.14499 6.21748-6.66739 10.23746-14.81396 8.87969-3.27982-.54666-5.99056-1.22066-8.90147-2.96716-3.89207-2.33526-4.52027-6.00385-6.89427-8.37785-2.22198-2.22202-6.97666-.18173-8.39967-4.45073-.82082-2.46246.50916-6.51657.98178-8.87969 1.30803-6.54017-1.06867-15.05276-2.96716-20.74823-2.22135-6.66409-17.42166-5.88139-19.24287-11.34501-1.02414-3.07243 2.96715-4.18634 2.96715-6.41429 0-.0119-3.39263.0188-3.46895 0-5.06132-1.26533-10.20963-2.2542-15.29394-3.94897-7.04439-2.3481-12.85183-.47565-15.31576 6.91613-.45866 1.37599.64672 3.63724 0 4.93071-2.77922 5.55842-5.90229 9.20886-12.82858 10.36319-3.63986.6067-6.61954 1.62098-9.86143 0-3.87045-1.93521-1.17183-12.03974-1.98538-15.2939-1.61025-6.44104-7.40238-7.43053-9.86142-12.34861-2.24553-4.49108 3.94893-5.0494 3.94893-8.3997 0-1.40741-4.26562-1.82616-4.95253-1.96356-6.53592-1.30715-3.3979-5.323988-7.1779-5.192528zm-64.8847 46.252728c.044.94991-.78405 1.8131-.98178 2.13809.0176.0524.0289.10256.0436.15276.0252-.007.11525-.0524.15272-.0656.64932-1.0674 2.55034-2.03128 1.76721-2.81447-.075-.075-.56998.2734-.98178.58911zm-1.0036 2.8581c-.097-.097-.30224-.34056-.45816-.52361-.73187 1.14071-1.39325 1.41501-2.48718 2.50895z"/></g></g></svg>